<svg width="147" height="172" viewBox="0 0 147 172" fill="none" xmlns="http://www.w3.org/2000/svg">
<g filter="url(#filter0_d_2_10)">
<path d="M43.2703 0.439285C40.8199 1.21665 38.9672 2.293 36.9352 4.26631C34.2457 6.8376 34.4848 7.25618 37.8316 5.70145C39.9234 4.74469 41.8359 4.38591 45.123 4.38591C49.7848 4.38591 52.534 5.16327 55.582 7.37577C58.5703 9.52847 58.8094 9.58827 58.391 8.15314C58.2117 7.43557 56.8371 5.58185 55.2832 4.08692C51.757 0.499081 47.3941 -0.756661 43.2703 0.439285Z" fill="#61dafb"/>
<path d="M93.4137 0.618657C90.8438 1.27643 86.72 4.68487 85.4649 7.13656C84.15 9.64805 84.3293 9.64805 87.5567 7.43555C92.7563 3.84771 100.825 3.13014 106.144 5.76122C109.072 7.19636 109.072 6.71798 106.263 3.90751C104.889 2.53217 102.916 1.33622 101.064 0.798049C97.7168 -0.218505 96.5813 -0.218505 93.4137 0.618657Z" fill="#61dafb"/>
<path d="M41.8359 17.4217C42.4934 17.9001 45.0035 19.395 47.3941 20.8302C49.7848 22.2653 51.518 23.5808 51.2789 23.82C51.0398 24.0592 47.2148 25.1356 42.9117 26.2119C38.5488 27.2883 34.9629 28.3048 34.9629 28.4842C34.9629 29.0224 51.757 28.1254 55.8809 27.3481C58.0324 26.9893 60.6023 26.2119 61.5586 25.7335L63.3516 24.8366L58.5703 22.5643C53.6695 20.2322 43.3898 16.6443 41.6566 16.6443C40.8797 16.6443 40.8797 16.8237 41.8359 17.4217Z" fill="#61dafb"/>
<path d="M93.4137 18.4383C86.8992 20.591 79.1895 24.119 79.1895 24.9562C79.1895 25.2552 79.4285 25.6738 79.7273 25.8531C81.4008 26.9295 90.784 28.1254 98.6133 28.3646L107.578 28.6038L99.0914 26.3315C94.4297 25.1356 90.4852 23.9396 90.2461 23.7602C90.0668 23.5211 91.8598 22.2055 94.2504 20.8302C96.641 19.395 99.1512 17.9001 99.8086 17.4217C100.944 16.6444 100.944 16.6444 99.8086 16.7042C99.1512 16.7042 96.2824 17.4815 93.4137 18.4383Z" fill="#61dafb"/>
<path d="M95.625 41.8788C94.7883 42.3572 88.214 42.5366 72.0176 42.417C59.7058 42.3572 48.5297 42.2376 47.2148 42.1778C44.884 42.0582 44.8242 42.118 45.0035 43.8521C45.3023 47.2008 49.2469 54.2568 52.8926 57.9045C63.9492 68.967 80.2652 68.8474 91.3816 57.6653C95.7445 53.2403 98.5535 47.9781 98.6133 44.1511C98.6133 41.2808 97.7765 40.6231 95.625 41.8788Z" fill="#61dafb"/>
<path d="M68.85 79.0727C63.8895 80.9264 61.2598 85.0524 61.2598 91.092V94.9788H58.6301C56.1797 94.9788 56.0004 95.0984 55.6418 96.8923C55.4625 97.9089 55.4625 99.7028 55.6418 100.779C56.0004 102.693 56.1199 102.752 58.9289 102.752H61.8574V116.446V130.199L64.5469 130.618C66.041 130.797 68.4316 130.797 69.9258 130.618L72.6152 130.199V116.446V102.752H79.7871H86.959V116.446V130.199L89.6484 130.618C91.1426 130.797 93.5332 130.797 95.0273 130.618L97.7168 130.199V116.506V102.812L102.08 102.633L106.383 102.453L106.562 100.121C106.682 98.8058 106.622 97.1315 106.383 96.2943C106.024 94.8592 105.905 94.7994 101.602 95.1582L97.1789 95.4572L96.8203 93.723C96.2824 91.391 96.9398 88.7599 98.3145 87.5041C99.2707 86.6072 100.167 86.4876 103.454 86.7866L107.339 87.1453L108.236 85.1122C109.73 81.5244 109.371 80.1491 106.861 79.4315C94.609 75.9632 86.4211 80.6872 86.3613 91.1518V94.8592L79.3688 95.0984C74.8863 95.218 72.1371 95.0984 71.898 94.6798C71.1809 93.723 71.3602 90.4342 72.1371 88.7001C72.9738 86.8464 74.707 86.368 78.9504 86.8464L82.2375 87.2051L83.0742 85.1122C84.6281 81.5244 84.2695 80.1491 81.7594 79.4315C77.8746 78.2953 71.3602 78.116 68.85 79.0727Z" fill="#61dafb"/>
<path d="M40.5211 80.9264C39.3855 81.7038 39.1465 82.4812 39.1465 84.9926C39.1465 89.597 39.5648 89.896 44.7645 89.896C47.5734 89.896 49.5457 89.597 50.0238 89.1187C50.9801 88.1619 50.9801 82.0626 50.0238 81.1058C48.8285 79.9099 42.075 79.7903 40.5211 80.9264Z" fill="#61dafb"/>
<path d="M7.94883 95.5768C2.45039 98.5068 0 104.128 0 113.576C0 119.675 0.119531 120.153 2.0918 124.04C3.825 127.329 4.66172 128.346 6.87305 129.542C10.0406 131.216 14.7621 131.156 18.1687 129.482C20.7387 128.226 20.6191 128.226 20.6191 129.781C20.6191 132.591 19.3641 135.521 17.8102 136.598C15.7781 137.913 10.1004 137.913 6.33516 136.598C4.90078 136.06 3.6457 135.701 3.58594 135.761C2.74922 136.717 1.55391 139.946 1.37461 141.621C1.19531 143.534 1.31484 143.654 3.88477 144.431C5.37891 144.91 9.02461 145.448 11.9531 145.627C21.5156 146.225 26.8945 143.594 29.2852 137.016C30.1816 134.624 30.4207 131.455 30.7195 118.24C31.0184 104.487 31.1977 102.095 32.0941 101.198C32.9309 100.241 32.9906 99.8224 32.3332 98.2676C31.1977 95.5768 29.8828 94.7994 27.4324 95.1582C26.2371 95.3974 24.8027 95.9356 24.2648 96.4139C23.3684 97.2511 22.95 97.1913 20.3203 95.8758C16.6148 93.9622 11.2359 93.8426 7.94883 95.5768ZM18.7066 103.35L20.6191 104.546V112.32C20.6191 120.811 20.6789 120.692 16.316 121.888C14.9414 122.306 14.284 122.127 13.0289 121.05C11.7141 119.854 11.475 119.137 11.1762 115.19C10.8176 108.971 11.4152 105.324 13.1484 103.59C14.8816 101.855 16.1367 101.796 18.7066 103.35Z" fill="#61dafb"/>
<path d="M111.642 95.0386C110.208 95.3974 109.072 95.8758 109.072 96.1747C109.072 96.4139 110.925 103.59 113.256 112.081C117.678 128.585 118.276 129.841 122.041 130.558C123.954 130.917 124.073 131.096 123.775 132.532C123.536 133.428 122.519 134.923 121.503 135.88C119.711 137.554 119.471 137.614 115.049 137.255C109.909 136.837 109.67 137.016 108.773 141.86C108.355 143.833 108.475 144.072 110.028 144.67C110.985 145.029 113.913 145.388 116.543 145.448C124.731 145.567 129.034 142.936 132.142 135.82C132.919 134.086 135.668 124.519 138.298 114.592C142.66 98.0883 143.019 96.4139 142.123 95.6964C140.987 94.8592 133.218 94.6798 132.739 95.517C132.56 95.7562 131.186 101.497 129.691 108.194C126.404 122.964 126.105 123.741 125.568 120.094C125.328 118.599 124.133 113.217 122.998 108.134C121.025 99.4636 119.89 96.0551 118.754 95.3974C117.678 94.6798 113.913 94.5004 111.642 95.0386Z" fill="#61dafb"/>
<path d="M36.8156 95.816C36.3972 96.2943 36.1582 97.9687 36.2777 99.5832C36.3972 101.915 36.6961 102.513 37.6523 102.633C38.3097 102.752 39.3258 103.291 39.9234 103.829C40.8199 104.606 40.9394 106.101 40.9394 117.403V130.08L42.7922 130.498C45.123 130.977 48.5894 130.977 50.3824 130.498L51.6972 130.14V115.19C51.6972 98.8058 51.4582 97.6099 48.1113 95.8758C45.7805 94.6798 37.7719 94.62 36.8156 95.816Z" fill="#61dafb"/>
<path d="M46.6172 152.324C40.8797 154.776 42.4336 163.447 48.6492 163.447C51.3985 163.447 52.8926 162.37 52.8926 160.397C52.8926 159.141 52.6535 158.962 50.6813 159.022C49.0078 159.081 48.8285 159.201 49.9043 159.38C53.4305 160.038 52.534 162.55 48.7688 162.55C44.4059 162.55 42.1945 157.228 45.3024 154.298C46.7367 152.922 50.6813 152.444 51.3985 153.58C51.5777 153.879 52.0559 154.178 52.4742 154.178C52.8926 154.178 52.8328 153.879 52.2949 153.281C51.1594 152.145 48.1711 151.667 46.6172 152.324Z" fill="#61dafb"/>
<path d="M63.8895 157.766C63.8895 161.234 63.9492 162.61 64.0688 160.875C64.1883 159.201 64.1883 156.331 64.0688 154.597C63.9492 152.922 63.8895 154.298 63.8895 157.766Z" fill="#61dafb"/>
<path d="M75.723 157.886C75.7828 161.294 75.9023 162.789 76.0219 161.174C76.2609 158.424 76.3207 158.364 78.3527 158.364C79.6078 158.364 80.325 158.125 80.0859 157.766C79.9066 157.407 78.9504 157.168 77.9344 157.168C76.3207 157.168 76.2012 156.989 76.2012 155.075V152.982H79.548C81.5801 152.982 82.7156 152.743 82.4766 152.384C82.2973 152.025 80.6238 151.786 78.8309 151.786H75.6035L75.723 157.886Z" fill="#61dafb"/>
<path d="M94.7285 152.205C93.5332 152.683 92.9355 153.64 92.9355 155.254C92.9355 156.331 93.5332 156.869 95.7445 157.826C99.0316 159.201 99.6293 159.978 98.8524 161.473C98.1949 162.669 95.8641 162.909 94.0711 161.952C93.2941 161.473 92.9355 161.533 92.9355 161.952C92.9355 162.61 95.3859 163.746 96.8203 163.746C97.2387 163.746 98.1949 163.267 98.9121 162.669C101.064 160.935 100.167 158.723 96.8801 157.467C94.0113 156.391 93.1148 155.135 94.1906 153.819C95.0273 152.803 97.8363 152.743 98.7926 153.7C99.3305 154.238 99.5098 154.238 99.5098 153.7C99.5098 152.324 96.7606 151.427 94.7285 152.205Z" fill="#61dafb"/>
</g>
<defs>
<filter id="filter0_d_2_10" x="-4" y="0" width="150.52" height="171.746" filterUnits="userSpaceOnUse" color-interpolation-filters="sRGB">
<feFlood flood-opacity="0" result="BackgroundImageFix"/>
<feColorMatrix in="SourceAlpha" type="matrix" values="0 0 0 0 0 0 0 0 0 0 0 0 0 0 0 0 0 0 127 0" result="hardAlpha"/>
<feOffset dy="4"/>
<feGaussianBlur stdDeviation="2"/>
<feComposite in2="hardAlpha" operator="out"/>
<feColorMatrix type="matrix" values="0 0 0 0 0 0 0 0 0 0 0 0 0 0 0 0 0 0 0.25 0"/>
<feBlend mode="normal" in2="BackgroundImageFix" result="effect1_dropShadow_2_10"/>
<feBlend mode="normal" in="SourceGraphic" in2="effect1_dropShadow_2_10" result="shape"/>
</filter>
</defs>
</svg>
